<svg xmlns="http://www.w3.org/2000/svg" viewBox="0 0 84 86">
  <title>spritzer oval</title>
  <g id="Ebene_2" data-name="Ebene 2">
    <g id="Ebene_2-2" data-name="Ebene 2">
      <g>
        <ellipse cx="17.9" cy="16" rx="0.8" ry="1" transform="translate(-6.1 15.25) rotate(-40)"/>
        <ellipse cx="19.5" cy="73" rx="1" ry="0.8" transform="translate(-43.28 30.95) rotate(-41.23)"/>
        <ellipse cx="44.9" cy="80" rx="0.8" ry="1"/>
        <ellipse cx="58.5" cy="72" rx="0.8" ry="1" transform="translate(-34.21 68.57) rotate(-48.79)"/>
        <ellipse cx="77" cy="39.3" rx="1" ry="0.8" transform="translate(-7.3 20.16) rotate(-14.25)"/>
        <ellipse cx="37.7" cy="83" rx="0.8" ry="1"/>
        <circle cx="9" cy="61" r="1"/>
        <ellipse cx="74" cy="62.3" rx="0.8" ry="1" transform="translate(-14.13 102.17) rotate(-64.44)"/>
        <ellipse cx="41.1" cy="5" rx="0.8" ry="1"/>
        <ellipse cx="3" cy="26.5" rx="0.5" ry="1" transform="matrix(0.34, -0.94, 0.94, 0.34, -22.93, 20.26)"/>
        <ellipse cx="23.5" cy="16" rx="0.8" ry="1" transform="translate(-4.06 9) rotate(-20)"/>
        <ellipse cx="66.1" cy="8" rx="1" ry="0.8" transform="translate(9.01 42.26) rotate(-37.87)"/>
        <ellipse cx="1" cy="57.5" rx="1" ry="0.5" transform="translate(-36.73 14.1) rotate(-40)"/>
        <ellipse cx="28.3" cy="3" rx="0.8" ry="1" transform="translate(0.68 9.86) rotate(-20)"/>
        <ellipse cx="50.7" cy="7" rx="1" ry="0.8" transform="translate(16.93 45.46) rotate(-56.58)"/>
        <circle cx="19.5" cy="79.5" r="0.5"/>
        <circle cx="74.5" cy="21.5" r="0.5"/>
        <circle cx="50.5" cy="83.5" r="0.5"/>
        <circle cx="30.5" cy="85.5" r="0.5"/>
        <circle cx="7.5" cy="69.5" r="0.5"/>
        <circle cx="56.5" cy="75.5" r="0.5"/>
        <circle cx="3.5" cy="61.5" r="0.5"/>
        <circle cx="80.5" cy="48.5" r="0.5"/>
        <circle cx="66.5" cy="72.5" r="0.5"/>
        <circle cx="74.5" cy="58.5" r="0.5"/>
        <circle cx="61.5" cy="11.5" r="0.5"/>
        <circle cx="0.5" cy="34.5" r="0.5"/>
        <circle cx="2.5" cy="43.5" r="0.5"/>
        <circle cx="13.5" cy="69.5" r="0.5"/>
        <circle cx="78.5" cy="44.5" r="0.5"/>
        <circle cx="83.5" cy="36.5" r="0.5"/>
        <circle cx="66.5" cy="14.5" r="0.5"/>
        <circle cx="7.5" cy="26.5" r="0.5"/>
        <circle cx="13.5" cy="11.5" r="0.5"/>
        <circle cx="6.5" cy="17.5" r="0.5"/>
        <circle cx="29.5" cy="8.5" r="0.5"/>
        <circle cx="37.5" cy="2.5" r="0.5"/>
        <circle cx="56.5" cy="3.5" r="0.5"/>
        <ellipse cx="6" cy="34" rx="2" ry="1"/>
        <ellipse cx="68.1" cy="68.5" rx="1.2" ry="1.5" transform="translate(-27.25 53.07) rotate(-35.98)"/>
        <ellipse cx="5.5" cy="51" rx="1.5" ry="1" transform="translate(-11.79 2.71) rotate(-13.54)"/>
        <ellipse cx="29.3" cy="81.5" rx="1.5" ry="1.2" transform="translate(-51.9 51.37) rotate(-49.87)"/>
        <ellipse cx="55.7" cy="82.5" rx="1.2" ry="1.5" transform="translate(-35.88 43.49) rotate(-32.9)"/>
        <ellipse cx="81.5" cy="54.1" rx="1.5" ry="1.2"/>
        <ellipse cx="75.5" cy="30.1" rx="1.5" ry="1.2" transform="translate(-4.41 15.23) rotate(-11.19)"/>
        <ellipse cx="46.3" cy="1.5" rx="1.2" ry="1.5"/>
        <ellipse cx="20.7" cy="5.5" rx="1.2" ry="1.5" transform="translate(0.02 11.09) rotate(-30)"/>
      </g>
    </g>
  </g>
</svg>
