<svg xmlns="http://www.w3.org/2000/svg" viewBox="0 0 84 86">
  <title>sprizer-frepi</title>
  <g id="Ebene_2" data-name="Ebene 2">
    <g id="Ebene_2-2" data-name="Ebene 2">
      <g>
        <circle cx="12" cy="16" r="1"/>
        <circle cx="17" cy="74" r="1"/>
        <circle cx="45" cy="80" r="1"/>
        <circle cx="62" cy="72" r="1"/>
        <circle cx="77" cy="38" r="1"/>
        <circle cx="36" cy="83" r="1"/>
        <circle cx="9" cy="61" r="1"/>
        <circle cx="74" cy="63" r="1"/>
        <circle cx="41" cy="5" r="1"/>
        <circle cx="3" cy="27" r="1"/>
        <circle cx="19" cy="16" r="1"/>
        <circle cx="71" cy="15" r="1"/>
        <circle cx="1" cy="57" r="1"/>
        <circle cx="25" cy="3" r="1"/>
        <circle cx="53" cy="7" r="1"/>
        <circle cx="19.5" cy="79.5" r="0.5"/>
        <circle cx="74.5" cy="21.5" r="0.5"/>
        <circle cx="50.5" cy="83.5" r="0.5"/>
        <circle cx="30.5" cy="85.5" r="0.5"/>
        <circle cx="7.5" cy="69.5" r="0.5"/>
        <circle cx="56.5" cy="75.5" r="0.5"/>
        <circle cx="3.5" cy="61.5" r="0.5"/>
        <circle cx="80.5" cy="48.5" r="0.5"/>
        <circle cx="66.5" cy="72.5" r="0.5"/>
        <circle cx="74.5" cy="58.5" r="0.5"/>
        <circle cx="61.5" cy="11.5" r="0.5"/>
        <circle cx="0.5" cy="34.5" r="0.5"/>
        <circle cx="2.5" cy="43.5" r="0.5"/>
        <circle cx="13.5" cy="69.5" r="0.5"/>
        <circle cx="78.5" cy="44.5" r="0.5"/>
        <circle cx="83.5" cy="36.5" r="0.5"/>
        <circle cx="66.5" cy="14.5" r="0.5"/>
        <circle cx="7.5" cy="26.5" r="0.5"/>
        <circle cx="13.5" cy="11.5" r="0.5"/>
        <circle cx="6.5" cy="17.5" r="0.5"/>
        <circle cx="29.5" cy="8.5" r="0.5"/>
        <circle cx="37.5" cy="2.5" r="0.5"/>
        <circle cx="56.5" cy="3.5" r="0.5"/>
        <circle cx="6.5" cy="34.5" r="1.5"/>
        <circle cx="71.5" cy="70.5" r="1.5"/>
        <circle cx="5.5" cy="50.5" r="1.5"/>
        <circle cx="25.5" cy="81.5" r="1.5"/>
        <circle cx="58.5" cy="82.5" r="1.5"/>
        <circle cx="81.5" cy="56.5" r="1.5"/>
        <circle cx="75.5" cy="26.5" r="1.5"/>
        <circle cx="47.5" cy="1.5" r="1.5"/>
        <circle cx="20.5" cy="9.5" r="1.5"/>
      </g>
    </g>
  </g>
</svg>
