<svg xmlns="http://www.w3.org/2000/svg" viewBox="0 0 102.64 101.93">
  <defs>
    <style>
      .cls-1 {
        fill: none;
        stroke: #929292;
        stroke-miterlimit: 10;
        stroke-width: 0.5px;
      }
    </style>
  </defs>
  <title>lines</title>
  <g id="Ebene_2" data-name="Ebene 2">
    <g id="Ebene_1-2" data-name="Ebene 1">
      <g>
        <path class="cls-1" d="M26.24,19.54c9.24-5.72,30-13.53,43.05-8.79C79,14.27,83.83,22,88.62,32.72c3.51,7.9,6.84,23.86,5.27,32.5-1.76,9.66-8.79,16.69-22,22.84S40.3,96,29.76,89.82,7.6,67.83,9.55,50.28C11.31,34.47,19,24,26.24,19.54Z"/>
        <path class="cls-1" d="M23.62,16.38c10-6.2,32.49-14.66,46.63-9.52C80.72,10.67,86,19,91.19,30.65,95,39.22,98.6,56.5,96.9,65.86,95,76.33,87.38,83.94,73.11,90.61s-34.26,8.56-45.68,1.9S3.43,68.7,5.54,49.68C7.44,32.55,15.82,21.21,23.62,16.38Z"/>
        <path class="cls-1" d="M20.58,12.58C31.69,5.7,56.64-3.69,72.33,2,84,6.24,89.82,15.47,95.57,28.42c4.23,9.51,8.23,28.69,6.34,39.08C99.8,79.12,91.35,87.57,75.5,95s-38,9.51-50.7,2.12S-1.83,70.64.51,49.54C2.62,30.53,11.92,17.94,20.58,12.58Z"/>
      </g>
    </g>
  </g>
</svg>
